<svg width="23" height="23" viewBox="0 0 23 23" fill="none" xmlns="http://www.w3.org/2000/svg">
<path d="M9.40039 14.4C13.2664 14.4 16.4004 11.266 16.4004 7.40002C16.4004 3.53403 13.2664 0.400024 9.40039 0.400024C5.5344 0.400024 2.40039 3.53403 2.40039 7.40002C2.40039 11.266 5.5344 14.4 9.40039 14.4Z" stroke="#4F5D73" stroke-width="0.8" stroke-linecap="round" stroke-linejoin="round"/>
<path d="M15.4004 20.4C19.2664 20.4 22.4004 17.266 22.4004 13.4C22.4004 9.53403 19.2664 6.40002 15.4004 6.40002C11.5344 6.40002 8.40039 9.53403 8.40039 13.4C8.40039 17.266 11.5344 20.4 15.4004 20.4Z" stroke="#4F5D73" stroke-width="0.8" stroke-linecap="round" stroke-linejoin="round"/>
<path d="M7.40039 22.4C11.2664 22.4 14.4004 19.266 14.4004 15.4C14.4004 11.534 11.2664 8.40002 7.40039 8.40002C3.5344 8.40002 0.400391 11.534 0.400391 15.4C0.400391 19.266 3.5344 22.4 7.40039 22.4Z" stroke="#4F5D73" stroke-width="0.8" stroke-linecap="round" stroke-linejoin="round"/>
</svg>
